<?xml version="1.0" encoding="UTF-8"?>
<!DOCTYPE svg PUBLIC "-//W3C//DTD SVG 1.1//EN" "http://www.w3.org/Graphics/SVG/1.1/DTD/svg11.dtd">
<!-- Creator: CorelDRAW -->
<svg xmlns="http://www.w3.org/2000/svg" xml:space="preserve" width="512mm" height="724.114mm" version="1.1" style="shape-rendering:geometricPrecision; text-rendering:geometricPrecision; image-rendering:optimizeQuality; fill-rule:evenodd; clip-rule:evenodd"
viewBox="0 0 512 724.1143"
 xmlns:xlink="http://www.w3.org/1999/xlink"
 xmlns:xodm="http://www.corel.com/coreldraw/odm/2003">
 <defs>
  <style type="text/css">
   <![CDATA[
    .fil1 {fill:none}
    .fil7 {fill:#FFF212}
    .fil5 {fill:#282829}
    .fil2 {fill:#0643FB}
    .fil0 {fill:#8E8E90}
    .fil6 {fill:#F1ED2E}
    .fil4 {fill:#F6F6FA}
    .fil3 {fill:#F70003}
   ]]>
  </style>
 </defs>
 <g id="Layer_x0020_1">
  <metadata id="CorelCorpID_0Corel-Layer"/>
  <g id="_2232911730912">
   <g>
    <path class="fil0" d="M255.8262 689.5277c-52.3071,-25.9735 -302.602,-158.0549 -241.6111,-597.5669 52.8367,6.372 140.4535,-5.0444 241.6111,-57.3484 101.1575,52.304 188.7744,63.7204 241.6111,57.3484 60.9909,439.512 -189.304,571.5934 -241.6111,597.5669zm-151.7319 -538.4168l9.2596 28.6852 30.1424 -0.058 -24.42 17.6703 9.3696 28.6491 -24.3517 -17.764 -24.3517 17.764 9.3696 -28.6491 -24.42 -17.6703 30.1424 0.058 9.2596 -28.6852zm315.1004 25.4135l37.8807 -0.0729 -30.6893 22.2064 11.7753 36.0038 -30.6032 -22.3242 -30.6032 22.3242 11.7753 -36.0038 -30.6893 -22.2064 37.8807 0.0729 11.6365 -36.0487 11.6365 36.0487zm-151.7319 380.3797l37.8807 -0.0731 -30.6893 22.2064 11.7753 36.0038 -30.6032 -22.3239 -30.6032 22.3239 11.7753 -36.0038 -30.6893 -22.2064 37.8807 0.0731 11.6365 -36.0489 11.6365 36.0489zm207.8574 -429.8467c-1.044,0.0002 -2.0897,-0.0056 -3.1364,-0.0151l3.1364 0.0151zm-3.7115 -0.0205c-1.0094,-0.0107 -2.0195,-0.0261 -3.031,-0.0453l3.031 0.0453zm-3.614 -0.058c-0.9492,-0.0202 -1.8998,-0.0439 -2.8509,-0.0717l2.8509 0.0717zm-3.198 -0.0812c-1.0084,-0.0307 -2.018,-0.067 -3.0284,-0.1063l3.0284 0.1063zm-3.7469 -0.1348c-1.014,-0.0414 -2.0297,-0.0866 -3.0457,-0.1365l3.0457 0.1365zm-3.4658 -0.1587c-0.9489,-0.0478 -1.8983,-0.0995 -2.8489,-0.1551l2.8489 0.1551zm-3.3668 -0.1848c-1.0179,-0.0607 -2.0365,-0.1265 -3.0562,-0.1955l3.0562 0.1955zm-3.713 -0.2406c-1.0291,-0.0717 -2.0592,-0.146 -3.0896,-0.2263l3.0896 0.2263zm-3.4587 -0.256c-0.897,-0.0707 -1.7949,-0.1446 -2.6929,-0.2219l2.6929 0.2219zm-3.5664 -0.297c-0.9538,-0.0839 -1.909,-0.1714 -2.8638,-0.2621l2.8638 0.2621zm-3.7347 -0.3462c-0.8816,-0.0858 -1.7637,-0.1741 -2.6463,-0.266l2.6463 0.266zm-3.102 -0.3126c-0.9782,-0.1026 -1.9568,-0.2109 -2.936,-0.3204l2.936 0.3204zm-3.8812 -0.4272c-0.9516,-0.1092 -1.9037,-0.2209 -2.856,-0.3367l2.856 0.3367zm-3.5908 -0.4274c-0.8736,-0.1078 -1.7476,-0.2177 -2.6217,-0.3308l2.6217 0.3308zm-3.2468 -0.4116c-0.9777,-0.128 -1.9554,-0.2601 -2.9335,-0.3947l2.9335 0.3947zm-3.8288 -0.5198c-0.9552,-0.1334 -1.9107,-0.2694 -2.8665,-0.4096l2.8665 0.4096zm-3.7342 -0.5391c-0.7504,-0.1112 -1.5009,-0.2248 -2.2516,-0.3404l2.2516 0.3404zm-3.2639 -0.4962c-0.9201,-0.1434 -1.84,-0.2904 -2.7599,-0.4396l2.7599 0.4396zm-3.7751 -0.6059c-0.7573,-0.1246 -1.515,-0.2511 -2.2718,-0.3796l2.2718 0.3796zm-3.8005 -0.6415c-0.6734,-0.1163 -1.3468,-0.2341 -2.0197,-0.3535l2.0197 0.3535zm-3.2522 -0.5734c-0.8631,-0.1556 -1.7269,-0.3133 -2.59,-0.4737l2.59 0.4737zm-3.8151 -0.7036c-0.6775,-0.1275 -1.3556,-0.257 -2.0331,-0.3872l2.0331 0.3872zm-3.211 -0.6149c-0.8073,-0.1577 -1.614,-0.3177 -2.4215,-0.4796l2.4215 0.4796zm-3.7868 -0.7548c-0.8455,-0.1719 -1.6908,-0.3455 -2.5359,-0.5218l2.5359 0.5218zm-3.6952 -0.766c-0.629,-0.1324 -1.2573,-0.2662 -1.8856,-0.4016l1.8856 0.4016zm-3.2631 -0.699c-0.7907,-0.1721 -1.5809,-0.3462 -2.371,-0.522l2.371 0.522zm-10.6913 -2.4444c-0.7807,-0.1872 -1.5606,-0.3755 -2.3403,-0.5664l2.3403 0.5664zm-200.9147 -10.8383c-2.0163,0.6346 -4.038,1.259 -6.0645,1.8739l-0.6078 0.1838c-1.282,0.3872 -2.5656,0.7712 -3.8512,1.1503l-0.1514 0.0451 -1.9529 0.5712 -0.5647 0.1636c-1.2283,0.356 -2.4581,0.709 -3.6896,1.0569l16.8821 -5.0449zm-27.5034 7.9401l-0.4696 0.1236c-0.6583,0.1721 -1.3163,0.3435 -1.9749,0.513l-0.5751 0.147c-1.1713,0.3001 -2.3435,0.5968 -3.5165,0.8892l-0.6639 0.1651c-1.0045,0.2494 -2.0095,0.4959 -3.0152,0.7392l-1.0964 0.265 -1.8115 0.4311 -0.9474 0.2226c-0.9696,0.2272 -1.9393,0.4518 -2.9096,0.6734l-1.2415 0.2828 -1.5772 0.3547c-0.769,0.1712 -1.5384,0.3401 -2.3079,0.5079l-1.6269 0.3516 -1.3987 0.2979c-0.8041,0.1704 -1.6087,0.3387 -2.4127,0.5049l-1.4516 0.2984 -1.5592 0.315c-0.8029,0.1609 -1.6055,0.3206 -2.4088,0.4774l-1.3951 0.2692 -1.6503 0.3143 -1.4807 0.2779c-0.7695,0.1429 -1.5389,0.2836 -2.3084,0.4225l-1.4897 0.2662 -1.9163 0.3355 -1.7057 0.2921 -2.0716 0.3462 -1.0121 0.1658c-0.9289,0.1512 -1.8581,0.2989 -2.787,0.444l-1.0206 0.1577c-0.8019,0.1236 -1.6033,0.2448 -2.4052,0.3635l-0.8704 0.1287c-0.8767,0.1285 -1.7535,0.2538 -2.6302,0.3764l-1.0711 0.1487c-0.9262,0.1275 -1.8522,0.2533 -2.778,0.3747l-0.8945 0.1153c-0.7873,0.1019 -1.5748,0.2007 -2.3615,0.2979l-0.8046 0.0997c-0.9362,0.1139 -1.872,0.2236 -2.8077,0.3308l-1.0201 0.1158c-0.9579,0.1078 -1.9159,0.2131 -2.8733,0.3138l-0.6156 0.0629c-0.8402,0.087 -1.6801,0.1714 -2.5193,0.2531l-0.8926 0.0866c-0.9474,0.09 -1.8949,0.1765 -2.8416,0.2599l-0.9011 0.0775c-0.9014,0.0773 -1.8018,0.1519 -2.7021,0.2228l-0.4108 0.0329c-1.0025,0.078 -2.0041,0.1499 -3.0047,0.2199l-0.6888 0.0473c-0.9962,0.0675 -1.9909,0.1312 -2.9859,0.1911l-0.69 0.0397c-0.8909,0.0517 -1.781,0.1 -2.6709,0.1456l-0.5225 0.0271c-1.0047,0.0495 -2.008,0.0941 -3.0115,0.1351l-0.7224 0.029c-1.0106,0.0395 -2.0204,0.0756 -3.0291,0.1063l-0.3477 0.0095c-0.9782,0.0293 -1.9554,0.0527 -2.9313,0.0734l-0.4542 0.01c-1.0347,0.0207 -2.0677,0.0351 -3.1,0.0463l-0.5391 0.0051c-1.053,0.0102 -2.1051,0.0161 -3.1559,0.0154 -15.3673,137.0546 -2.0248,283.412 79.3025,400.0953 0.5464,0.7838 1.0949,1.565 1.6462,2.3445l0.2272 0.3199c0.4966,0.701 0.9957,1.4009 1.4965,2.0985l0.2121 0.2948c0.5076,0.7058 1.0174,1.4104 1.5292,2.1121l0.1907 0.2606c0.4918,0.6739 0.9857,1.3461 1.4816,2.0163l0.3474 0.4693c0.4703,0.6337 0.9421,1.2661 1.4156,1.8966l0.3447 0.4586c0.4784,0.6356 0.9584,1.2693 1.4402,1.9012l0.3187 0.4184c0.4864,0.6368 0.9755,1.2715 1.4655,1.9054l0.3377 0.4362c0.5069,0.6537 1.0155,1.3061 1.5262,1.9563l0.257 0.3279c0.5191,0.6597 1.0408,1.3171 1.5636,1.9734l0.2831 0.3555c0.4762,0.5961 0.9548,1.19 1.4338,1.7832l0.6771 0.8358c0.4108,0.5059 0.8231,1.0106 1.2361,1.5141l0.5954 0.7244c0.4403,0.5347 0.8821,1.0676 1.3253,1.5999l0.5995 0.717c0.4276,0.5113 0.8563,1.022 1.2868,1.5309l0.6112 0.7207c0.4274,0.5037 0.856,1.0062 1.2861,1.507l0.6181 0.7185c0.4123,0.4788 0.8253,0.956 1.24,1.4326l0.6797 0.7787c0.403,0.4608 0.8073,0.9206 1.212,1.3795l0.7687 0.8689c0.3713,0.4184 0.7436,0.835 1.1164,1.2515 0.4125,0.4606 0.8258,0.9194 1.24,1.378l0.6583 0.7275c0.4354,0.4791 0.8721,0.9574 1.3093,1.4343l0.6249 0.6802c0.4752,0.5161 0.9516,1.0299 1.4297,1.5433l0.4554 0.4886c0.5105,0.5469 1.0218,1.0913 1.5358,1.635l0.4601 0.4859c0.5161,0.5444 1.0338,1.0876 1.5526,1.6291l0.3447 0.3591c0.5432,0.5656 1.0881,1.1291 1.635,1.6918l0.3777 0.3872c0.54,0.5539 1.0818,1.1067 1.625,1.6574l0.3521 0.3562c4.8389,4.8935 9.8024,9.6585 14.887,14.2919l-27.5034 -483.3624zm33.4112 488.6384c1.4477,1.2673 2.9045,2.5239 4.3715,3.7703l-4.3715 -3.7703zm4.6026 3.9668c1.8942,1.6074 3.8044,3.1968 5.7298,4.7696l-5.7298 -4.7696zm8.4392 6.962c1.1259,0.9031 2.2565,1.8005 3.3929,2.6917l-3.3929 -2.6917zm22.1391 16.5205c0.7539,0.5225 1.5092,1.0428 2.2669,1.5601l-2.2669 -1.5601zm121.1643 -33.0764c0.6344,-0.5793 1.2673,-1.1598 1.8968,-1.7432l-1.8968 1.7432zm2.0943 -1.9259c0.6595,-0.6112 1.3168,-1.2247 1.9717,-1.8403l-1.9717 1.8403zm2.0105 -1.8768c0.6324,-0.5947 1.2627,-1.1915 1.8915,-1.79l-1.8915 1.79zm2.1246 -2.0117c0.6112,-0.5834 1.2205,-1.1686 1.8281,-1.7554l-1.8281 1.7554zm1.9905 -1.9122c0.6176,-0.5973 1.2332,-1.1964 1.8469,-1.7976l-1.8469 1.7976zm2.0307 -1.9785c1.2851,-1.2607 2.5622,-2.531 3.8305,-3.8093l-3.8305 3.8093zm8.7372 -8.8439c0.4503,-0.4701 0.8992,-0.9416 1.3473,-1.4141l-1.3473 1.4141zm2.0551 -2.1623c0.4503,-0.4774 0.8997,-0.9565 1.3478,-1.436l-1.3478 1.436zm3.9765 -4.2776c0.4135,-0.4513 0.8258,-0.9033 1.2373,-1.3568l-1.2373 1.3568z"/>
   </g>
   <path class="fil1" d="M475.3201 127.0574c-1.044,0.0002 -2.0897,-0.0056 -3.1364,-0.0151 1.0467,0.0095 2.0924,0.0154 3.1364,0.0151zm-3.7115 -0.0205c-1.0094,-0.0107 -2.0195,-0.0261 -3.031,-0.0453 1.0116,0.0197 2.0217,0.0346 3.031,0.0453zm-3.614 -0.058c-0.9492,-0.0202 -1.8998,-0.0439 -2.8509,-0.0717 0.9513,0.0278 1.9017,0.0514 2.8509,0.0717zm-3.198 -0.0812c-1.0084,-0.0307 -2.018,-0.067 -3.0284,-0.1063 1.0108,0.0393 2.02,0.0756 3.0284,0.1063zm-3.7469 -0.1348c-1.014,-0.0414 -2.0297,-0.0866 -3.0457,-0.1365 1.0164,0.05 2.0312,0.0951 3.0457,0.1365zm-3.4658 -0.1587c-0.9489,-0.0478 -1.8983,-0.0995 -2.8489,-0.1551 0.9501,0.0556 1.9,0.1073 2.8489,0.1551zm-3.3668 -0.1848c-1.0179,-0.0607 -2.0365,-0.1265 -3.0562,-0.1955 1.0191,0.069 2.0382,0.1348 3.0562,0.1955zm-3.713 -0.2406c-1.0291,-0.0717 -2.0592,-0.146 -3.0896,-0.2263 1.0303,0.0802 2.0604,0.1546 3.0896,0.2263zm-3.4587 -0.256c-0.897,-0.0707 -1.7949,-0.1446 -2.6929,-0.2219 0.898,0.0773 1.7959,0.1516 2.6929,0.2219zm-3.5664 -0.297c-0.9538,-0.0839 -1.909,-0.1714 -2.8638,-0.2621 0.9552,0.0907 1.9095,0.1782 2.8638,0.2621zm-3.7347 -0.3462c-0.8816,-0.0858 -1.7637,-0.1741 -2.6463,-0.266 0.8826,0.0919 1.7647,0.1802 2.6463,0.266zm-3.102 -0.3126c-0.9782,-0.1026 -1.9568,-0.2109 -2.936,-0.3204 0.9791,0.1095 1.9578,0.2177 2.936,0.3204zm-3.8812 -0.4272c-0.9516,-0.1092 -1.9037,-0.2209 -2.856,-0.3367 0.9523,0.1153 1.9044,0.2275 2.856,0.3367zm-3.5908 -0.4274c-0.8736,-0.1078 -1.7476,-0.2177 -2.6217,-0.3308 0.8741,0.1131 1.7481,0.2231 2.6217,0.3308zm-3.2468 -0.4116c-0.9777,-0.128 -1.9554,-0.2601 -2.9335,-0.3947 0.9782,0.1351 1.9558,0.2667 2.9335,0.3947zm-3.8288 -0.5198c-0.9552,-0.1334 -1.9107,-0.2694 -2.8665,-0.4096 0.9557,0.1402 1.9112,0.2762 2.8665,0.4096zm-3.7342 -0.5391c-0.7504,-0.1112 -1.5009,-0.2248 -2.2516,-0.3404 0.7507,0.1156 1.5011,0.2292 2.2516,0.3404zm-3.2639 -0.4962c-0.9201,-0.1434 -1.84,-0.2904 -2.7599,-0.4396 0.9199,0.1492 1.8398,0.2962 2.7599,0.4396zm-3.7751 -0.6059c-0.7573,-0.1246 -1.515,-0.2511 -2.2718,-0.3796 0.7573,0.1285 1.5145,0.255 2.2718,0.3796zm-3.8005 -0.6415c-0.6734,-0.1163 -1.3468,-0.2341 -2.0197,-0.3535 0.6734,0.1195 1.3463,0.2372 2.0197,0.3535zm-3.2522 -0.5734c-0.8631,-0.1556 -1.7269,-0.3133 -2.59,-0.4737 0.8631,0.1604 1.7269,0.3182 2.59,0.4737zm-3.8151 -0.7036c-0.6775,-0.1275 -1.3556,-0.257 -2.0331,-0.3872 0.6775,0.1307 1.3556,0.2597 2.0331,0.3872zm-3.211 -0.6149c-0.8073,-0.1577 -1.614,-0.3177 -2.4215,-0.4796 0.8075,0.1619 1.6143,0.3218 2.4215,0.4796zm-3.7868 -0.7548c-0.8455,-0.1719 -1.6908,-0.3455 -2.5359,-0.5218 0.845,0.1763 1.6903,0.3499 2.5359,0.5218zm-3.6952 -0.766c-0.629,-0.1324 -1.2573,-0.2662 -1.8856,-0.4016 0.6283,0.1353 1.2571,0.2692 1.8856,0.4016zm-3.2631 -0.699c-0.7907,-0.1721 -1.5809,-0.3462 -2.371,-0.522 0.7902,0.1758 1.5804,0.3499 2.371,0.522zm-10.6913 -2.4444c-0.7807,-0.1872 -1.5606,-0.3755 -2.3403,-0.5664 0.7797,0.1909 1.5596,0.3791 2.3403,0.5664zm-200.9147 480.4642c-5.0846,-4.6329 -10.0481,-9.3984 -14.887,-14.2919 4.8389,4.8935 9.8024,9.6585 14.887,14.2919zm5.9077 5.276c1.4477,1.2673 2.9045,2.5239 4.3715,3.7703 -1.4665,-1.2464 -2.9238,-2.5029 -4.3715,-3.7703zm4.6026 3.9668c1.8942,1.6074 3.8044,3.1968 5.7298,4.7696 -1.9259,-1.5723 -3.8351,-3.1622 -5.7298,-4.7696zm8.4392 6.962c1.1259,0.9031 2.2565,1.8005 3.3929,2.6917 -1.1364,-0.8911 -2.2669,-1.7886 -3.3929,-2.6917zm22.1391 16.5205c0.7539,0.5225 1.5092,1.0428 2.2669,1.5601 -0.7578,-0.5174 -1.5131,-1.0377 -2.2669,-1.5601zm121.1643 -33.0764c0.6344,-0.5793 1.2673,-1.1598 1.8968,-1.7432 -0.63,0.5837 -1.2624,1.1652 -1.8968,1.7445m2.0943 -1.9271c0.6595,-0.6112 1.3168,-1.2247 1.9717,-1.8403 -0.6549,0.6156 -1.3122,1.229 -1.9717,1.8403zm2.0105 -1.8768c0.6324,-0.5947 1.2627,-1.1915 1.8915,-1.79 -0.6285,0.5986 -1.259,1.1954 -1.8915,1.79zm2.1246 -2.0117c0.6112,-0.5834 1.2205,-1.1686 1.8281,-1.7554 -0.6076,0.5873 -1.2169,1.172 -1.8281,1.7554zm1.9905 -1.9122c0.6176,-0.5973 1.2332,-1.1964 1.8469,-1.7976 -0.6137,0.6012 -1.2293,1.2003 -1.8469,1.7976zm2.0307 -1.9785c1.2851,-1.2607 2.5622,-2.531 3.8305,-3.8093 -1.2678,1.2788 -2.5454,2.5485 -3.8305,3.8093zm8.7372 -8.8439c0.4503,-0.4701 0.8992,-0.9416 1.3473,-1.4141 -0.4481,0.4725 -0.897,0.944 -1.3473,1.4141zm2.0551 -2.1623c0.4503,-0.4774 0.8997,-0.9565 1.3478,-1.436 -0.4481,0.4796 -0.8975,0.9587 -1.3478,1.436zm3.9765 -4.2776c0.4135,-0.4513 0.8258,-0.9033 1.2373,-1.3568 -0.4116,0.4535 -0.8238,0.9055 -1.2373,1.3568zm-234.5745 -453.2156c-0.769,0.1712 -1.5384,0.3401 -2.3079,0.5079 0.7695,-0.1677 1.5389,-0.3367 2.3079,-0.5079zm-10.7571 2.2757c-0.8029,0.1609 -1.6055,0.3206 -2.4088,0.4774 0.8034,-0.1568 1.606,-0.3165 2.4088,-0.4774zm-6.9349 1.3388c-0.7695,0.1429 -1.5389,0.2836 -2.3084,0.4225 0.7695,-0.139 1.5389,-0.2796 2.3084,-0.4225zm-10.5038 1.8283c-0.9289,0.1512 -1.8581,0.2989 -2.787,0.444 0.9289,-0.1451 1.8581,-0.2928 2.787,-0.444zm-3.8076 0.6017c-0.8019,0.1236 -1.6033,0.2448 -2.4052,0.3635 0.8014,-0.1192 1.6033,-0.2399 2.4052,-0.3635zm-3.2756 0.4923c-0.8767,0.1285 -1.7535,0.2538 -2.6302,0.3764 0.8763,-0.1231 1.7535,-0.248 2.6302,-0.3764zm-3.7013 0.5252c-0.9262,0.1275 -1.8522,0.2533 -2.778,0.3747 0.9257,-0.1219 1.8517,-0.2472 2.778,-0.3747zm-3.6725 0.4901c-0.7873,0.1019 -1.5748,0.2007 -2.3615,0.2979 0.787,-0.0973 1.5743,-0.196 2.3615,-0.2979zm-3.1661 0.3977c-0.9362,0.1139 -1.872,0.2236 -2.8077,0.3308 0.9357,-0.1073 1.8715,-0.2172 2.8077,-0.3308zm-3.8278 0.4467c-0.9579,0.1078 -1.9159,0.2131 -2.8733,0.3138 0.9574,-0.1007 1.9154,-0.206 2.8733,-0.3138zm-3.4889 0.3767c-0.8402,0.087 -1.6801,0.1714 -2.5193,0.2531 0.8392,-0.0817 1.6791,-0.166 2.5193,-0.2531zm-3.4119 0.3396c-0.9474,0.09 -1.8949,0.1765 -2.8416,0.2599 0.9467,-0.0834 1.8937,-0.1699 2.8416,-0.2599zm-3.7427 0.3374c-0.9014,0.0773 -1.8018,0.1519 -2.7021,0.2228 0.9001,-0.0709 1.8008,-0.1456 2.7021,-0.2228zm-3.113 0.2558c-1.0025,0.078 -2.0041,0.1499 -3.0047,0.2199 1.0011,-0.0695 2.0022,-0.1419 3.0047,-0.2199zm-3.6935 0.2672c-0.9962,0.0675 -1.9909,0.1312 -2.9859,0.1911 0.995,-0.06 1.9897,-0.1236 2.9859,-0.1911zm-3.6759 0.2309c-0.8909,0.0517 -1.781,0.1 -2.6709,0.1456 0.8899,-0.0456 1.7801,-0.0939 2.6709,-0.1456zm-3.1934 0.1726c-1.0047,0.0495 -2.008,0.0941 -3.0115,0.1351 1.003,-0.041 2.0068,-0.0856 3.0115,-0.1351zm-3.7339 0.1641c-1.0106,0.0395 -2.0204,0.0756 -3.0291,0.1063 1.0082,-0.0307 2.0185,-0.0668 3.0291,-0.1063zm-3.3768 0.1158c-0.9782,0.0293 -1.9554,0.0527 -2.9313,0.0734 0.976,-0.0207 1.9532,-0.0441 2.9313,-0.0734zm-3.3855 0.0834c-1.0347,0.0207 -2.0677,0.0351 -3.1,0.0463 1.0318,-0.0112 2.0653,-0.0256 3.1,-0.0463zm-3.6391 0.0514c-1.053,0.0102 -2.1051,0.0161 -3.1559,0.0154 1.0503,0.0007 2.1024,-0.0051 3.1559,-0.0154zm106.9161 439.0188c0.4125,0.4606 0.8258,0.9194 1.24,1.378 -0.4142,-0.4586 -0.8275,-0.9175 -1.24,-1.378zm1.8983 2.1055c0.4354,0.4791 0.8721,0.9574 1.3093,1.4343 -0.4376,-0.4769 -0.8738,-0.9548 -1.3093,-1.4343zm1.9341 2.1146c0.4752,0.5161 0.9516,1.0299 1.4297,1.5433 -0.4781,-0.5135 -0.9545,-1.0272 -1.4297,-1.5433zm1.8851 2.0319c0.5105,0.5469 1.0218,1.0913 1.5358,1.635 -0.5135,-0.5437 -1.0255,-1.0886 -1.5358,-1.635zm1.9958 2.1209c0.5161,0.5444 1.0338,1.0876 1.5526,1.6291 -0.5188,-0.5415 -1.0364,-1.0847 -1.5526,-1.6291zm1.8973 1.9883c0.5432,0.5656 1.0881,1.1291 1.635,1.6918 -0.5469,-0.5627 -1.0918,-1.1262 -1.635,-1.6918zm2.0126 2.079c0.54,0.5539 1.0818,1.1067 1.625,1.6574 -0.5435,-0.5508 -1.085,-1.1035 -1.625,-1.6574z"/>
   <path class="fil2" d="M115.7308 176.5244l37.8807 -0.0729 -30.6893 22.2064 11.7753 36.0038 -30.6032 -22.3242 -30.6032 22.3242 11.7753 -36.0038 -30.6893 -22.2064 37.8807 0.0729 11.6365 -36.0487 11.6365 36.0487zm59.1609 -73.0205c-45.2769,14.2499 -93.145,23.5737 -138.5594,23.5535 -15.3673,137.0546 -2.0248,283.412 79.3025,400.0953 17.3327,24.8676 37.1446,47.5041 59.2569,67.6537l0 -133.8614 -25.7616 6.6104 14.2148 -55.3979 11.5468 -8.0277 0 -4.7019 -16.4206 6.8016 -3.5667 -8.6118 19.9873 -8.2788 0 -3.0864 -20.7328 3.7278 -49.2234 -29.1211 49.2234 -29.1211 20.7328 3.7274 0 -3.0859 -19.9873 -8.2788 3.5667 -8.6118 16.4206 6.8016 0 -4.7019 -11.5468 -8.0277 -14.2148 -55.3979 25.7616 6.6104 0 -157.2696z"/>
   <path class="fil3" d="M475.3201 127.0574c-45.2859,0.0202 -93.0119,-9.2501 -138.1754,-23.432l0 157.0494 25.3776 -6.5117 -14.2148 55.3979 -11.1628 7.7607 0 4.8101 16.0366 -6.6428 3.5672 8.6109 -19.6037 8.1206 0 3.1761 20.3488 -3.6584 49.2234 29.1211 -49.2234 29.1211 -20.3488 -3.6584 0 3.1761 19.6037 8.1206 -3.5672 8.6109 -16.0366 -6.6423 0 4.8096 11.1628 7.7607 14.2148 55.3979 -25.3776 -6.5117 0 133.4128c21.9572,-20.0616 41.6407,-42.5799 58.8729,-67.3039 81.3273,-116.6833 94.6698,-263.0407 79.3025,-400.0953zm-56.1254 49.467l37.8807 -0.0729 -30.6893 22.2064 11.7753 36.0038 -30.6032 -22.3242 -30.6032 22.3242 11.7753 -36.0038 -30.6893 -22.2064 37.8807 0.0729 11.6365 -36.0487 11.6365 36.0487z"/>
   <path class="fil4" d="M337.1447 103.6254c-28.5518,-8.9663 -56.0803,-19.8941 -81.3185,-31.6816 -25.1251,11.7348 -52.5202,22.617 -80.9345,31.5602l0 157.2696 29.6363 7.6044 14.4357 20.7636c0.5793,-0.2989 1.1625,-0.59 1.7493,-0.8745l-10.2571 -24.7628 8.6118 -3.5667 10.2554 24.7586c0.6156,-0.2146 1.2347,-0.4215 1.8559,-0.6207l-4.4739 -24.8834 29.1211 -49.2234 29.1211 49.2234 -4.4739 24.8834c0.6217,0.1992 1.2403,0.4062 1.8564,0.6207l10.2558 -24.7591 8.6109 3.5672 -10.2576 24.7632c0.5868,0.2845 1.17,0.5756 1.7498,0.8745l14.4357 -20.764 30.0203 -7.7032 0 -157.0494zm-162.253 213.9633l0 4.7019 8.341 3.4553c0.2843,-0.5871 0.5759,-1.1703 0.8743,-1.7501l-9.2153 -6.4071zm0 14.7909l0 3.0859 4.1492 0.7461c0.1992,-0.6212 0.4062,-1.24 0.6207,-1.8564l-4.7699 -1.9756zm0 53.8729l0 3.0864 4.7704 -1.9761c-0.2146,-0.6161 -0.4215,-1.2347 -0.6207,-1.8564l-4.1496 0.7461zm0 13.1755l0 4.7019 9.2153 -6.4071c-0.2984,-0.5798 -0.59,-1.163 -0.8743,-1.7498l-8.341 3.455zm0 61.517l0 133.8614c24.2812,22.1267 51.336,41.2543 80.9345,57.0336 29.7545,-15.8627 56.9385,-35.1086 81.3185,-57.3835l0 -133.4128 -30.0203 -7.7032 -14.4357 -20.7636c-0.5793,0.2984 -1.1625,0.59 -1.7493,0.8745l10.2571 24.7628 -8.6109 3.5672 -10.2558 -24.7591c-0.6161,0.2146 -1.2351,0.4215 -1.8564,0.6207l4.4739 24.8834 -29.1211 49.2234 -29.1211 -49.2234 4.4739 -24.8834c-0.6212,-0.1997 -1.2403,-0.4064 -1.8559,-0.6207l-10.2554 24.7586 -8.6118 -3.5667 10.2571 -24.7632c-0.5868,-0.2845 -1.1696,-0.5756 -1.7493,-0.8741l-14.4357 20.7636 -29.6363 7.6044zm162.253 -56.5482l0 -4.8096 -8.7252 -3.6142c-0.2845,0.5868 -0.5756,1.17 -0.8745,1.7498l9.5998 6.674zm0 -14.8987l0 -3.1761 -4.5332 -0.8151c-0.1992,0.6217 -0.4062,1.24 -0.6207,1.8564l5.1539 2.1348zm0 -54.1016l0 -3.1761 -5.1534 2.1348c0.2141,0.6164 0.4211,1.2347 0.6203,1.8564l4.5332 -0.8151zm0 -13.2647l0 -4.8101 -9.5993 6.674c0.2987,0.5798 0.5905,1.163 0.8748,1.7501l8.7245 -3.614zm-69.682 234.7722l37.8807 -0.0731 -30.6893 22.2064 11.7753 36.0038 -30.6032 -22.3239 -30.6032 22.3239 11.7753 -36.0038 -30.6893 -22.2064 37.8807 0.0731 11.6365 -36.0489 11.6365 36.0489z"/>
   <path class="fil5" d="M115.7308 176.5244l37.8807 -0.0729 -30.6893 22.2064 11.7753 36.0038 -30.6032 -22.3242 -30.6032 22.3242 11.7753 -36.0038 -30.6893 -22.2064 37.8807 0.0729 11.6365 -36.0487 11.6365 36.0487zm161.0118 109.8408c2.522,0.7068 4.9918,1.538 7.4018,2.4873l10.209 -24.6469 2.5741 1.0667 -10.2098 24.6482c2.4369,1.0633 4.8094,2.2484 7.1085,3.5474l-0.1192 -0.0675 15.4061 -22.1596 48.8719 -12.5403 -12.5403 48.8719 -22.1581 15.4053c1.2729,2.2613 2.4354,4.5936 3.4804,6.989l24.6462 -10.2088 1.0667 2.5741 -24.645 10.2085c0.9492,2.4105 1.7801,4.8798 2.4869,7.4021l26.554 -4.7738 43.4247 25.6905 -43.4247 25.6905 -26.554 -4.7735c-0.7068,2.522 -1.5382,4.9913 -2.4873,7.4018l24.6455 10.2085 -1.0667 2.5741 -24.6467 -10.2088c-1.045,2.3954 -2.2075,4.7272 -3.4804,6.989l22.1586 15.4053 12.5403 48.8719 -48.8719 -12.5403 -15.4061 -22.1596c-2.2616,1.2729 -4.5934,2.4352 -6.9888,3.4799l10.2093 24.6482 -2.5741 1.0667 -10.209 -24.6465c-2.4105,0.9489 -4.8803,1.7801 -7.4018,2.4869l4.774 26.5555 -25.6905 43.4247 -25.6905 -43.4247 4.774 -26.5555c-2.5215,-0.7068 -4.9913,-1.5384 -7.4013,-2.4873l-10.209 24.6465 -2.5746 -1.0664 10.2093 -24.6479c-2.4374,-1.0633 -4.8091,-2.2484 -7.108,-3.5474l0.1192 0.0675 -15.4061 22.1596 -48.8719 12.5403 12.5403 -48.8719 22.1581 -15.4053c-1.2729,-2.2613 -2.4349,-4.5936 -3.4799,-6.989l-24.6465 10.2088 -1.0664 -2.5746 24.645 -10.2085c-0.9489,-2.4105 -1.7801,-4.8803 -2.4869,-7.4018l-26.5545 4.774 -43.4247 -25.6905 43.4247 -25.6905 26.554 4.7738c0.7068,-2.5217 1.5382,-4.9915 2.4869,-7.4021l-24.6445 -10.2081 1.0664 -2.5746 24.646 10.2088c1.045,-2.3949 2.2079,-4.7277 3.4809,-6.989l-22.1586 -15.4053 -12.5403 -48.8719 48.8719 12.5403 15.4061 22.1596c2.2621,-1.2729 4.5934,-2.4357 6.9888,-3.4799l-10.2093 -24.6479 2.5746 -1.0664 10.209 24.6465c2.4101,-0.9494 4.8798,-1.7805 7.4013,-2.4873l-4.774 -26.5555 25.6905 -43.4247 25.6905 43.4247 -4.774 26.5555zm-20.9164 245.1251l9.2596 28.6852 30.1424 -0.058 -24.42 17.6703 9.3696 28.6493 -24.3517 -17.7642 -24.3517 17.7642 9.3696 -28.6493 -24.42 -17.6703 30.1424 0.058 9.2596 -28.6852zm151.7319 -380.3794l9.2596 28.6852 30.1424 -0.058 -24.42 17.6703 9.3696 28.6491 -24.3517 -17.764 -24.3517 17.764 9.3696 -28.6491 -24.42 -17.6703 30.1424 0.058 9.2596 -28.6852zm-303.4639 0l9.2596 28.6852 30.1424 -0.058 -24.42 17.6703 9.3696 28.6491 -24.3517 -17.764 -24.3517 17.764 9.3696 -28.6491 -24.42 -17.6703 30.1424 0.058 9.2596 -28.6852zm315.1004 25.4135l37.8807 -0.0729 -30.6893 22.2064 11.7753 36.0038 -30.6032 -22.3242 -30.6032 22.3242 11.7753 -36.0038 -30.6893 -22.2064 37.8807 0.0729 11.6365 -36.0487 11.6365 36.0487zm-151.7319 380.3797l37.8807 -0.0731 -30.6893 22.2064 11.7753 36.0038 -30.6032 -22.3239 -30.6032 22.3239 11.7753 -36.0038 -30.6893 -22.2064 37.8807 0.0731 11.6365 -36.0489 11.6365 36.0489zm13.0107 -272.8287c0.6217,0.1992 1.2403,0.4062 1.8564,0.6207l10.2558 -24.7591 8.6109 3.5672 -10.2576 24.7632c0.5868,0.2845 1.17,0.5756 1.7498,0.8745l14.4357 -20.764 55.3979 -14.2148 -14.2148 55.3979 -20.7621 14.4347c0.2987,0.5798 0.5905,1.163 0.8748,1.7501l24.7611 -10.2568 3.5672 8.6109 -24.7572 10.2554c0.2141,0.6164 0.4211,1.2347 0.6203,1.8564l24.882 -4.4734 49.2234 29.1211 -49.2234 29.1211 -24.882 -4.4734c-0.1992,0.6217 -0.4062,1.24 -0.6207,1.8564l24.7576 10.2554 -3.5672 8.6109 -24.7618 -10.2566c-0.2845,0.5868 -0.5756,1.17 -0.8745,1.7498l20.7626 14.4347 14.2148 55.3979 -55.3979 -14.2148 -14.4357 -20.7636c-0.5793,0.2984 -1.1625,0.59 -1.7493,0.8745l10.2571 24.7628 -8.6109 3.5672 -10.2558 -24.7591c-0.6161,0.2146 -1.2351,0.4215 -1.8564,0.6207l4.4739 24.8834 -29.1211 49.2234 -29.1211 -49.2234 4.4739 -24.8834c-0.6212,-0.1997 -1.2403,-0.4064 -1.8559,-0.6207l-10.2554 24.7586 -8.6118 -3.5667 10.2571 -24.7632c-0.5868,-0.2845 -1.1696,-0.5756 -1.7493,-0.8741l-14.4357 20.7636 -55.3979 14.2148 14.2148 -55.3979 20.7621 -14.4347c-0.2984,-0.5798 -0.59,-1.163 -0.8743,-1.7498l-24.7615 10.2566 -3.5667 -8.6118 24.7576 -10.2549c-0.2146,-0.6161 -0.4215,-1.2347 -0.6207,-1.8564l-24.8825 4.4739 -49.2234 -29.1211 49.2234 -29.1211 24.882 4.4734c0.1992,-0.6212 0.4062,-1.24 0.6207,-1.8564l-24.7572 -10.2544 3.5667 -8.6118 24.7615 10.2568c0.2843,-0.5871 0.5759,-1.1703 0.8743,-1.7501l-20.7621 -14.4347 -14.2148 -55.3979 55.3979 14.2148 14.4357 20.7636c0.5793,-0.2989 1.1625,-0.59 1.7493,-0.8745l-10.2571 -24.7628 8.6118 -3.5667 10.2554 24.7586c0.6156,-0.2146 1.2347,-0.4215 1.8559,-0.6207l-4.4739 -24.8834 29.1211 -49.2234 29.1211 49.2234 -4.4739 24.8834z"/>
   <polygon class="fil6" points="104.0942,151.1109 113.3539,179.7961 143.4963,179.7381 119.0763,197.4084 128.4459,226.0575 104.0942,208.2935 79.7425,226.0575 89.1121,197.4084 64.6922,179.7381 94.8346,179.7961 "/>
   <polygon class="fil6" points="407.5581,151.1109 416.8177,179.7961 446.9602,179.7381 422.5402,197.4084 431.9098,226.0575 407.5581,208.2935 383.2064,226.0575 392.576,197.4084 368.156,179.7381 398.2985,179.7961 "/>
   <polygon class="fil6" points="255.8262,531.4904 265.0858,560.1755 295.2282,560.1175 270.8083,577.7879 280.1779,606.4372 255.8262,588.673 231.4745,606.4372 240.8441,577.7879 216.4241,560.1175 246.5665,560.1755 "/>
   <path class="fil7" d="M276.7426 286.3653c2.522,0.7068 4.9918,1.538 7.4018,2.4873l10.209 -24.6469 2.5741 1.0667 -10.2098 24.6482c2.4369,1.0633 4.8094,2.2484 7.1085,3.5474l-0.1192 -0.0675 15.4061 -22.1596 48.8719 -12.5403 -12.5403 48.8719 -22.1581 15.4053c1.2729,2.2613 2.4354,4.5936 3.4804,6.989l24.6462 -10.2088 1.0667 2.5741 -24.645 10.2085c0.9492,2.4105 1.7801,4.8798 2.4869,7.4021l26.554 -4.7738 43.4247 25.6905 -43.4247 25.6905 -26.554 -4.7735c-0.7068,2.522 -1.5382,4.9913 -2.4873,7.4018l24.6455 10.2085 -1.0667 2.5741 -24.6467 -10.2088c-1.045,2.3954 -2.2075,4.7272 -3.4804,6.989l22.1586 15.4053 12.5403 48.8719 -48.8719 -12.5403 -15.4061 -22.1596c-2.2616,1.2729 -4.5934,2.4352 -6.9888,3.4799l10.2093 24.6482 -2.5741 1.0667 -10.209 -24.6465c-2.4105,0.9489 -4.8803,1.7801 -7.4018,2.4869l4.774 26.5555 -25.6905 43.4247 -25.6905 -43.4247 4.774 -26.5555c-2.5215,-0.7068 -4.9913,-1.5384 -7.4013,-2.4873l-10.209 24.6465 -2.5746 -1.0664 10.2093 -24.6479c-2.4374,-1.0633 -4.8091,-2.2484 -7.108,-3.5474l0.1192 0.0675 -15.4061 22.1596 -48.8719 12.5403 12.5403 -48.8719 22.1581 -15.4053c-1.2729,-2.2613 -2.4349,-4.5936 -3.4799,-6.989l-24.6465 10.2088 -1.0664 -2.5746 24.645 -10.2085c-0.9489,-2.4105 -1.7801,-4.8803 -2.4869,-7.4018l-26.5545 4.774 -43.4247 -25.6905 43.4247 -25.6905 26.554 4.7738c0.7068,-2.5217 1.5382,-4.9915 2.4869,-7.4021l-24.6445 -10.2081 1.0664 -2.5746 24.646 10.2088c1.045,-2.3949 2.2079,-4.7277 3.4809,-6.989l-22.1586 -15.4053 -12.5403 -48.8719 48.8719 12.5403 15.4061 22.1596c2.2621,-1.2729 4.5934,-2.4357 6.9888,-3.4799l-10.2093 -24.6479 2.5746 -1.0664 10.209 24.6465c2.4101,-0.9494 4.8798,-1.7805 7.4013,-2.4873l-4.774 -26.5555 25.6905 -43.4247 25.6905 43.4247 -4.774 26.5555z"/>
  </g>
 </g>
</svg>
